<svg xmlns="http://www.w3.org/2000/svg" width="211.656" height="16.906" viewBox="0 0 211.656 16.906">
  <defs>
    <style>
      .cls-1 {
        fill: #fff;
        fill-rule: evenodd;
      }
    </style>
  </defs>
  <path id="Nintendo_Switch" data-name="Nintendo Switch" class="cls-1" d="M169.373,605.984H167.03l-8.967-11.7-0.012,11.7h-2.595V589.822H157.8l8.98,11.694V589.822h2.595v16.162Zm9.26-14.881a1.667,1.667,0,0,1-1.7,1.686,1.647,1.647,0,0,1-1.676-1.686,1.667,1.667,0,0,1,1.676-1.708A1.687,1.687,0,0,1,178.633,591.1Zm-0.482,14.881h-2.412V594.925h2.412v11.059Zm16.3-6.95v6.95h-2.411v-6.153c0-1.858-.953-2.9-2.561-2.9a2.733,2.733,0,0,0-2.847,2.921v6.13h-2.412V594.925h2.389v1.351a3.892,3.892,0,0,1,3.375-1.639A4.25,4.25,0,0,1,194.447,599.034Zm12.991-1.916h-4.215v4.814c0,1.489.781,2.067,1.746,2.067a4.4,4.4,0,0,0,2.216-.751l0.953,1.927a5.908,5.908,0,0,1-3.376,1.1c-2.492,0-3.95-1.351-3.95-4.3v-4.86h-2.193v-2.193h2.193v-3.349h2.411v3.349h4.215v2.193Zm15.114,3.324c0,0.312-.023.625-0.046,0.9h-8.13a3.113,3.113,0,0,0,3.273,2.818,5.244,5.244,0,0,0,3.181-1.167l1.194,1.72a6.6,6.6,0,0,1-4.524,1.559,5.441,5.441,0,0,1-5.627-5.819c0-3.463,2.239-5.817,5.477-5.817C220.428,594.637,222.54,596.991,222.552,600.442Zm-8.164-.934H220.1c-0.264-1.72-1.264-2.725-2.79-2.725A2.849,2.849,0,0,0,214.388,599.508Zm23.21-.474v6.95h-2.411v-6.153c0-1.858-.953-2.9-2.561-2.9a2.733,2.733,0,0,0-2.847,2.921v6.13h-2.412V594.925h2.389v1.351a3.893,3.893,0,0,1,3.376-1.639A4.249,4.249,0,0,1,237.6,599.034Zm13.2-2.77v-6.9h2.4v16.624h-2.4v-1.328a4.164,4.164,0,0,1-3.457,1.617,5.827,5.827,0,0,1,0-11.636A4.174,4.174,0,0,1,250.8,596.264Zm-6.488,4.19a3.326,3.326,0,1,0,3.318-3.544A3.3,3.3,0,0,0,244.308,600.454Zm25.082,0a5.92,5.92,0,1,1-5.925-5.817A5.735,5.735,0,0,1,269.39,600.454Zm-9.37,0a3.452,3.452,0,1,0,3.445-3.544A3.379,3.379,0,0,0,260.02,600.454Zm33.972-7.053a8.277,8.277,0,0,0-4.513-1.385c-2.147,0-3.617.934-3.617,2.412,0,1.339,1.252,1.859,3.341,2.159l1.115,0.15c2.606,0.358,5.178,1.443,5.178,4.445,0,3.29-2.963,5.091-6.442,5.091a10.4,10.4,0,0,1-6.465-2.17L284,602.024a8.076,8.076,0,0,0,5.041,1.779c2.1,0,3.755-.9,3.755-2.39,0-1.27-1.263-1.859-3.617-2.183l-1.252-.173c-2.388-.334-4.765-1.466-4.765-4.466,0-3.246,2.859-5.046,6.338-5.046a10.059,10.059,0,0,1,5.811,1.743Zm18.377,9.974,2.595-8.45h2.5l-3.64,11.059h-2.871l-2.722-8.335-2.721,8.335h-2.825l-3.639-11.059h2.561l2.583,8.4,2.709-8.4h2.722ZM324.948,591.1a1.666,1.666,0,0,1-1.7,1.686,1.648,1.648,0,0,1-1.676-1.686,1.667,1.667,0,0,1,1.676-1.708A1.686,1.686,0,0,1,324.948,591.1Zm-0.483,14.881h-2.41V594.925h2.41v11.059Zm13.564-8.866h-4.214v4.814c0,1.489.781,2.067,1.745,2.067a4.394,4.394,0,0,0,2.216-.751l0.953,1.927a5.908,5.908,0,0,1-3.376,1.1c-2.492,0-3.95-1.351-3.95-4.3v-4.86H329.21v-2.193H331.4v-3.349h2.412v3.349h4.214v2.193Zm14.333-.715-1.539,1.651a3.677,3.677,0,0,0-2.641-1.144,3.558,3.558,0,0,0,0,7.089,4,4,0,0,0,2.7-1.155l1.481,1.663a5.282,5.282,0,0,1-4.111,1.766,5.818,5.818,0,0,1,0-11.636A5.249,5.249,0,0,1,352.362,596.4Zm6.938-.162a3.918,3.918,0,0,1,3.353-1.6,4.25,4.25,0,0,1,4.467,4.4v6.95h-2.411v-6.153c0-1.858-.954-2.9-2.561-2.9a2.734,2.734,0,0,0-2.848,2.921v6.13h-2.411V589.36H359.3v6.881Z" transform="translate(-155.469 -589.375)"/>
</svg>
