<svg xmlns="http://www.w3.org/2000/svg" width="272.75" height="16.906" viewBox="0 0 272.75 16.906">
  <defs>
    <style>
      .cls-1 {
        fill: #fff;
        fill-rule: evenodd;
      }
    </style>
  </defs>
  <path id="Nintendo_Switch_Lite" data-name="Nintendo Switch Lite" class="cls-1" d="M1017.18,605.923h-2.35l-8.97-11.693-0.01,11.693h-2.59V589.762h2.34l8.98,11.694V589.762h2.6v16.161Zm9.26-14.881a1.67,1.67,0,0,1-1.7,1.687,1.647,1.647,0,0,1-1.68-1.687,1.665,1.665,0,0,1,1.68-1.707A1.688,1.688,0,0,1,1026.44,591.042Zm-0.49,14.881h-2.41V594.864h2.41v11.059Zm16.3-6.948v6.948h-2.41V599.77c0-1.858-.95-2.9-2.56-2.9a2.735,2.735,0,0,0-2.85,2.92v6.13h-2.41V594.864h2.39v1.351a3.887,3.887,0,0,1,3.37-1.639A4.251,4.251,0,0,1,1042.25,598.975Zm12.99-1.918h-4.21v4.815c0,1.488.78,2.066,1.75,2.066a4.364,4.364,0,0,0,2.21-.751l0.95,1.929a5.887,5.887,0,0,1-3.37,1.1c-2.49,0-3.95-1.351-3.95-4.293v-4.862h-2.19v-2.193h2.19v-3.347h2.41v3.347h4.21v2.193Zm15.12,3.326a8.506,8.506,0,0,1-.05.9h-8.13a3.119,3.119,0,0,0,3.28,2.817,5.24,5.24,0,0,0,3.18-1.167l1.19,1.722a6.6,6.6,0,0,1-4.52,1.557,5.441,5.441,0,0,1-5.63-5.817c0-3.465,2.24-5.819,5.48-5.819C1068.24,594.576,1070.35,596.93,1070.36,600.383Zm-8.16-.936h5.7c-0.26-1.719-1.26-2.724-2.79-2.724A2.84,2.84,0,0,0,1062.2,599.447Zm23.21-.472v6.948H1083V599.77c0-1.858-.96-2.9-2.56-2.9a2.735,2.735,0,0,0-2.85,2.92v6.13h-2.41V594.864h2.39v1.351a3.887,3.887,0,0,1,3.37-1.639A4.251,4.251,0,0,1,1085.41,598.975Zm13.2-2.771v-6.9h2.4v16.624h-2.4V604.6a4.178,4.178,0,0,1-3.46,1.616,5.827,5.827,0,0,1,0-11.636A4.183,4.183,0,0,1,1098.61,596.2Zm-6.49,4.191a3.327,3.327,0,1,0,3.32-3.545A3.3,3.3,0,0,0,1092.12,600.4Zm25.08,0a5.921,5.921,0,1,1-5.92-5.819A5.728,5.728,0,0,1,1117.2,600.4Zm-9.37,0a3.456,3.456,0,1,0,3.45-3.545A3.379,3.379,0,0,0,1107.83,600.4Zm33.98-7.054a8.284,8.284,0,0,0-4.51-1.386c-2.15,0-3.62.936-3.62,2.413,0,1.34,1.25,1.859,3.34,2.159l1.11,0.15c2.61,0.357,5.18,1.443,5.18,4.444,0,3.29-2.96,5.091-6.44,5.091a10.382,10.382,0,0,1-6.46-2.17l1.41-2.077a8.074,8.074,0,0,0,5.04,1.777c2.1,0,3.75-.9,3.75-2.39,0-1.27-1.26-1.858-3.61-2.181l-1.25-.173c-2.39-.335-4.77-1.467-4.77-4.468,0-3.245,2.86-5.046,6.34-5.046a10.056,10.056,0,0,1,5.81,1.744Zm18.38,9.975,2.59-8.452h2.51l-3.64,11.059h-2.87l-2.73-8.334-2.72,8.334h-2.82l-3.64-11.059h2.56l2.58,8.4,2.71-8.4h2.72Zm12.58-12.274a1.67,1.67,0,0,1-1.7,1.687,1.653,1.653,0,0,1-1.68-1.687A1.69,1.69,0,1,1,1172.77,591.042Zm-0.48,14.881h-2.41V594.864h2.41v11.059Zm13.56-8.866h-4.21v4.815c0,1.488.78,2.066,1.74,2.066a4.4,4.4,0,0,0,2.22-.751l0.95,1.929a5.913,5.913,0,0,1-3.37,1.1c-2.5,0-3.95-1.351-3.95-4.293v-4.862h-2.2v-2.193h2.2v-3.347h2.41v3.347h4.21v2.193Zm14.34-.715-1.54,1.651a3.69,3.69,0,0,0-2.64-1.143,3.557,3.557,0,0,0,0,7.088,3.98,3.98,0,0,0,2.69-1.155l1.49,1.663a5.284,5.284,0,0,1-4.11,1.766,5.818,5.818,0,0,1,0-11.636A5.255,5.255,0,0,1,1200.19,596.342Zm6.94-.161a3.913,3.913,0,0,1,3.35-1.605,4.251,4.251,0,0,1,4.47,4.4v6.948h-2.42V599.77c0-1.858-.95-2.9-2.56-2.9a2.728,2.728,0,0,0-2.84,2.92v6.13h-2.42V589.3h2.42v6.882Zm33.14,9.742h-11.49V589.762h2.59v13.69h8.9v2.471Zm7.52-14.881a1.67,1.67,0,0,1-1.7,1.687,1.653,1.653,0,0,1-1.68-1.687A1.69,1.69,0,1,1,1247.79,591.042Zm-0.48,14.881h-2.41V594.864h2.41v11.059Zm13.57-8.866h-4.21v4.815c0,1.488.78,2.066,1.74,2.066a4.366,4.366,0,0,0,2.22-.751l0.95,1.929a5.887,5.887,0,0,1-3.37,1.1c-2.49,0-3.95-1.351-3.95-4.293v-4.862h-2.2v-2.193h2.2v-3.347h2.41v3.347h4.21v2.193Zm15.12,3.326a8.506,8.506,0,0,1-.05.9h-8.13a3.113,3.113,0,0,0,3.28,2.817,5.24,5.24,0,0,0,3.18-1.167l1.19,1.722a6.6,6.6,0,0,1-4.52,1.557,5.441,5.441,0,0,1-5.63-5.817c0-3.465,2.24-5.819,5.48-5.819C1273.87,594.576,1275.99,596.93,1276,600.383Zm-8.17-.936h5.71c-0.26-1.719-1.26-2.724-2.79-2.724A2.856,2.856,0,0,0,1267.83,599.447Z" transform="translate(-1003.25 -589.313)"/>
</svg>
